<svg width="18" height="16" viewBox="0 0 18 16" fill="none" xmlns="http://www.w3.org/2000/svg">
<path d="M16.7054 7.13601C17.0999 7.65204 17.0999 8.34868 16.7054 8.86387C15.4627 10.486 12.4814 13.8261 9.00076 13.8261C5.52007 13.8261 2.53876 10.486 1.29614 8.86387C1.10419 8.61679 1 8.31282 1 7.99994C1 7.68706 1.10419 7.3831 1.29614 7.13601C2.53876 5.51386 5.52007 2.17383 9.00076 2.17383C12.4814 2.17383 15.4627 5.51386 16.7054 7.13601V7.13601Z" stroke="#2C2C2C" stroke-linecap="round" stroke-linejoin="round"/>
<path d="M9.00081 10.4967C10.3798 10.4967 11.4977 9.37884 11.4977 7.99984C11.4977 6.62083 10.3798 5.50293 9.00081 5.50293C7.62181 5.50293 6.50391 6.62083 6.50391 7.99984C6.50391 9.37884 7.62181 10.4967 9.00081 10.4967Z" stroke="#2C2C2C" stroke-linecap="round" stroke-linejoin="round"/>
<path d="M16 1L2 15" stroke="#2C2C2C" stroke-linecap="round" stroke-linejoin="round"/>
</svg>
