<svg width="18" height="14" viewBox="0 0 18 14" fill="none" xmlns="http://www.w3.org/2000/svg">
<path d="M16.7049 6.08019C17.0994 6.5962 17.0994 7.29281 16.7049 7.80799C15.4623 9.4301 12.4811 12.77 9.0005 12.77C5.51992 12.77 2.53871 9.4301 1.29613 7.80799C1.10419 7.56092 1 7.25696 1 6.94409C1 6.63122 1.10419 6.32726 1.29613 6.08019C2.53871 4.45808 5.51992 1.11816 9.0005 1.11816C12.4811 1.11816 15.4623 4.45808 16.7049 6.08019V6.08019Z" stroke="#2C2C2C" stroke-linecap="round" stroke-linejoin="round"/>
<path d="M9.00073 9.44092C10.3797 9.44092 11.4976 8.32305 11.4976 6.94409C11.4976 5.56513 10.3797 4.44727 9.00073 4.44727C7.62177 4.44727 6.50391 5.56513 6.50391 6.94409C6.50391 8.32305 7.62177 9.44092 9.00073 9.44092Z" stroke="#2C2C2C" stroke-linecap="round" stroke-linejoin="round"/>
</svg>
